<svg width="24" height="24" viewBox="0 0 24 24" fill="none" xmlns="http://www.w3.org/2000/svg">
<path d="M11.4198 3.52148C11.6531 3.40849 11.9259 3.40927 12.161 3.52441C13.8513 4.35231 15.5926 5.07491 18.9061 5.82812C19.3101 5.92004 19.577 6.26762 19.577 6.63965V10.8887C19.577 16.3933 15.1869 19.415 11.9716 20.6553C11.8459 20.7036 11.7075 20.7037 11.5819 20.6553C8.36607 19.415 3.97742 16.3933 3.97742 10.8887V6.63965C3.97742 6.26761 4.24432 5.92002 4.64832 5.82812C7.96922 5.07327 9.71082 4.34909 11.4198 3.52148Z" stroke="currentColor" stroke-width="2.4"/>
<path d="M11.8456 12.1279H20.7782C20.2213 17.6671 15.6216 20.6655 12.4608 21.8848C12.2555 21.9639 12.0392 22.0014 11.8231 22V12.0957H2.88855C2.85392 11.7406 2.83484 11.3751 2.83484 10.999V6.75C2.83484 5.79677 3.50988 4.98 4.43933 4.76855C7.66401 4.03557 9.31987 3.3431 10.954 2.55176C11.2357 2.41534 11.5408 2.34751 11.8456 2.34766V12.1279Z" fill="currentColor"/>
</svg>
